<svg width="32" height="32" viewBox="0 0 32 32" fill="none" xmlns="http://www.w3.org/2000/svg">
<path d="M19.4163 16.5L18.208 15.2917C18.333 14.6389 18.1455 14.0278 17.6455 13.4583C17.1455 12.8889 16.4997 12.6667 15.708 12.7917L14.4997 11.5833C14.7358 11.4722 14.9754 11.3889 15.2184 11.3333C15.4615 11.2778 15.7219 11.25 15.9997 11.25C17.0413 11.25 17.9268 11.6146 18.6559 12.3438C19.3851 13.0729 19.7497 13.9583 19.7497 15C19.7497 15.2778 19.7219 15.5382 19.6663 15.7812C19.6108 16.0243 19.5275 16.2639 19.4163 16.5ZM22.083 19.125L20.8747 17.9583C21.4025 17.5556 21.8712 17.1146 22.2809 16.6354C22.6906 16.1562 23.0413 15.6111 23.333 15C22.6386 13.5972 21.642 12.4826 20.3434 11.6562C19.0448 10.8299 17.5969 10.4167 15.9997 10.4167C15.5969 10.4167 15.2011 10.4444 14.8122 10.5C14.4233 10.5556 14.0413 10.6389 13.6663 10.75L12.3747 9.45833C12.9441 9.22222 13.5275 9.04514 14.1247 8.92708C14.7219 8.80903 15.3469 8.75 15.9997 8.75C18.0969 8.75 19.965 9.32986 21.6038 10.4896C23.2427 11.6493 24.4302 13.1528 25.1663 15C24.8469 15.8194 24.4268 16.5799 23.9059 17.2812C23.3851 17.9826 22.7775 18.5972 22.083 19.125ZM22.4997 24.25L18.9997 20.7917C18.5136 20.9444 18.024 21.059 17.5309 21.1354C17.0379 21.2118 16.5275 21.25 15.9997 21.25C13.9025 21.25 12.0344 20.6701 10.3955 19.5104C8.75662 18.3507 7.56912 16.8472 6.83301 15C7.12467 14.2639 7.49273 13.5799 7.93717 12.9479C8.38162 12.316 8.88856 11.75 9.45801 11.25L7.16634 8.91667L8.33301 7.75L23.6663 23.0833L22.4997 24.25ZM10.6247 12.4167C10.2219 12.7778 9.85384 13.1736 9.52051 13.6042C9.18717 14.0347 8.90245 14.5 8.66634 15C9.36079 16.4028 10.3573 17.5174 11.6559 18.3438C12.9545 19.1701 14.4025 19.5833 15.9997 19.5833C16.2775 19.5833 16.5483 19.566 16.8122 19.5312C17.0761 19.4965 17.3469 19.4583 17.6247 19.4167L16.8747 18.625C16.7219 18.6667 16.5761 18.6979 16.4372 18.7188C16.2983 18.7396 16.1525 18.75 15.9997 18.75C14.958 18.75 14.0726 18.3854 13.3434 17.6562C12.6143 16.9271 12.2497 16.0417 12.2497 15C12.2497 14.8472 12.2601 14.7014 12.2809 14.5625C12.3018 14.4236 12.333 14.2778 12.3747 14.125L10.6247 12.4167Z" fill="#414844"/>
</svg>
