<svg width="64" height="64" viewBox="0 0 64 64" fill="none" xmlns="http://www.w3.org/2000/svg">
<rect width="64" height="64" rx="32" fill="#A5D0B9" fill-opacity="0.3"/>
<path d="M29.6663 39.6667L41.4163 27.9167L39.083 25.5833L29.6663 35L24.9163 30.25L22.583 32.5833L29.6663 39.6667ZM31.9997 48.6667C29.6941 48.6667 27.5275 48.2292 25.4997 47.3542C23.4719 46.4792 21.708 45.2917 20.208 43.7917C18.708 42.2917 17.5205 40.5278 16.6455 38.5C15.7705 36.4722 15.333 34.3056 15.333 32C15.333 29.6945 15.7705 27.5278 16.6455 25.5C17.5205 23.4722 18.708 21.7083 20.208 20.2083C21.708 18.7083 23.4719 17.5208 25.4997 16.6458C27.5275 15.7708 29.6941 15.3333 31.9997 15.3333C34.3052 15.3333 36.4719 15.7708 38.4997 16.6458C40.5275 17.5208 42.2913 18.7083 43.7913 20.2083C45.2913 21.7083 46.4788 23.4722 47.3538 25.5C48.2288 27.5278 48.6663 29.6945 48.6663 32C48.6663 34.3056 48.2288 36.4722 47.3538 38.5C46.4788 40.5278 45.2913 42.2917 43.7913 43.7917C42.2913 45.2917 40.5275 46.4792 38.4997 47.3542C36.4719 48.2292 34.3052 48.6667 31.9997 48.6667Z" fill="#012D1D"/>
</svg>
