<svg width="64" height="80" viewBox="0 0 64 80" fill="none" xmlns="http://www.w3.org/2000/svg">
<rect x="0.5" y="0.5" width="63" height="63" rx="31.5" fill="#C1ECD4" fill-opacity="0.3"/>
<rect x="0.5" y="0.5" width="63" height="63" rx="31.5" stroke="#C1ECD4"/>
<path d="M30.1332 38.1333L39.5332 28.7333L37.6665 26.8667L30.1332 34.4L26.3332 30.6L24.4665 32.4667L30.1332 38.1333ZM31.9998 45.3333C30.1554 45.3333 28.4221 44.9833 26.7998 44.2833C25.1776 43.5833 23.7665 42.6333 22.5665 41.4333C21.3665 40.2333 20.4165 38.8222 19.7165 37.2C19.0165 35.5778 18.6665 33.8444 18.6665 32C18.6665 30.1555 19.0165 28.4222 19.7165 26.8C20.4165 25.1778 21.3665 23.7667 22.5665 22.5667C23.7665 21.3667 25.1776 20.4167 26.7998 19.7167C28.4221 19.0167 30.1554 18.6667 31.9998 18.6667C33.8443 18.6667 35.5776 19.0167 37.1998 19.7167C38.8221 20.4167 40.2332 21.3667 41.4332 22.5667C42.6332 23.7667 43.5832 25.1778 44.2832 26.8C44.9832 28.4222 45.3332 30.1555 45.3332 32C45.3332 33.8444 44.9832 35.5778 44.2832 37.2C43.5832 38.8222 42.6332 40.2333 41.4332 41.4333C40.2332 42.6333 38.8221 43.5833 37.1998 44.2833C35.5776 44.9833 33.8443 45.3333 31.9998 45.3333Z" fill="#012D1D"/>
</svg>
